<svg width="52" height="52" xmlns="http://www.w3.org/2000/svg" xmlns:bx="https://boxy-svg.com">
    <defs>
        <bx:guide x="-8.904" y="33.626" angle="0"></bx:guide>
    </defs>
    <path d="M 12.049 50.362 L 16.669 59.632 L 5.669 59.632 L 12.049 50.362 Z" style="transform-box: fill-box; transform-origin: 50.9607% 55.9707%; stroke-width: 0px; fill: rgb(37, 211, 102);" transform="matrix(0.956314, -0.292342, 0.333038, 0.943873, -2.185929, -14.07621)" bx:shape="triangle 5.669 50.362 11 9.27 0.58 0 1@61725455"></path>
    <ellipse style="fill: rgb(37, 211, 102);" cx="26" cy="26" rx="24" ry="24"></ellipse>
    <path class="resume-logo" d="M 26 47.2 C 22.1 47.2 18.4 46.2 15 44.2 L 14.3 43.8 L 6.2 45.8 L 8.4 38 L 7.8 37.2 C -0.976 23.258 8.631 5.045 25.093 4.415 C 25.395 4.404 25.698 4.399 26 4.4 C 37.842 4.344 47.456 13.958 47.4 25.8 C 47.4 37.6 37.8 47.2 26 47.2 M 44.2 7.6 C 30.037 -6.323 6.112 0.307 1.136 19.534 C -0.529 25.97 0.353 32.799 3.6 38.6 L 0 52 L 13.7 48.4 C 31.127 57.926 52.331 45.014 51.868 25.159 C 51.713 18.518 49.002 12.193 44.3 7.5" style="fill: rgb(255, 255, 255);"></path>
  <text style="fill: rgb(255, 255, 255); font-family: Arial, sans-serif; font-size: 36px; font-weight: 700; paint-order: fill; text-anchor: middle; white-space: pre;" x="25.011" y="39.072">1</text>
</svg>